<svg height="512pt" viewBox="-10 0 512 512" width="512pt" xmlns="http://www.w3.org/2000/svg"><path d="m476.921875 321.421875-36.050781-29.691406c2.117187-11.589844 3.234375-23.527344 3.234375-35.730469s-1.117188-24.144531-3.234375-35.734375l36.050781-29.691406c6.054687-4.984375 7.613281-13.589844 3.695313-20.371094l-42.707032-73.960937c-3.90625-6.792969-12.148437-9.75-19.480468-6.984376l-43.773438 16.398438c-18.097656-15.429688-39.011719-27.640625-61.863281-35.765625l-3.945313-23.652344c-113.773437 5.558594-204.3125 99.558594-204.3125 214.710938 0 114.601562 89.671875 208.242187 202.675782 214.617187l5.578124-33.453125c22.855469-8.128906 43.769532-20.34375 61.867188-35.769531l43.773438 16.398438c7.324218 2.773437 15.5625-.195313 19.480468-6.984376l42.707032-73.964843c3.917968-6.78125 2.359374-15.382813-3.695313-20.371094zm0 0" fill="#0084ff"/><path d="m300.640625 320.054688v176.808593c-2.917969 2.914063-6.941406 4.6875-11.320313 4.6875h-85.40625c-3.769531 0-7.269531-1.316406-10.035156-3.546875v-177.949218zm0 0" fill="#ffaf00"/><path d="m300.640625 151.554688v94.925781l-53.382813 32.027343-53.378906-32.027343v-94.925781c-39.230468 19.984374-64.054687 59.84375-64.058594 104.441406 0 66.878906 54.480469 117.410156 117.375 117.441406 64.785157.03125 117.5-52.664062 117.5-117.441406 0-44.59375-24.828124-84.457032-64.054687-104.441406zm0 0" fill="#ffd41d"/><path d="m225.699219 418.320312c-5.769531 0-10.449219-4.675781-10.449219-10.449218v-4.675782c0-5.773437 4.679688-10.449218 10.449219-10.449218s10.449219 4.675781 10.449219 10.449218v4.675782c0 5.773437-4.679688 10.449218-10.449219 10.449218zm0 0"/><path d="m483.566406 313.355469-31.394531-25.855469c1.582031-10.398438 2.382813-20.964844 2.382813-31.5s-.800782-21.105469-2.382813-31.503906l31.394531-25.855469c10.03125-8.261719 12.59375-22.421875 6.097656-33.660156l-42.695312-73.949219c-4.703125-8.175781-13.480469-13.253906-22.902344-13.253906-3.191406 0-6.328125.574218-9.304687 1.695312l-38.105469 14.277344c-16.546875-13.289062-34.851562-23.871094-54.550781-31.542969l-6.683594-40.082031c-2.128906-12.820312-13.101563-22.125-26.101563-22.125h-85.40625c-12.996093 0-23.972656 9.308594-26.097656 22.121094l-6.683594 40.085937c-19.703124 7.671875-38.007812 18.253907-54.550781 31.542969l-38.066406-14.257812c-3-1.136719-6.140625-1.714844-9.339844-1.714844-9.410156 0-18.1875 5.074218-22.902343 13.242187l-42.699219 73.957031c-6.5 11.246094-3.9375 25.402344 6.09375 33.664063l31.394531 25.855469c-1.578125 10.402344-2.378906 20.96875-2.378906 31.503906s.800781 21.101562 2.378906 31.503906l-31.394531 25.855469c-10.03125 8.261719-12.59375 22.417969-6.097657 33.660156l42.703126 73.960938c4.714843 8.171875 13.492187 13.25 22.902343 13.25 3.207031 0 6.355469-.582031 9.296875-1.703125l38.105469-14.277344c16.546875 13.289062 34.851563 23.871094 54.550781 31.542969l6.683594 40.074219c2.121094 12.824218 13.097656 22.132812 26.101562 22.132812h85.40625c12.992188 0 23.96875-9.304688 26.097657-22.117188l6.683593-40.089843c19.703126-7.671875 38.007813-18.253907 54.554688-31.542969l38.070312 14.261719c2.996094 1.136719 6.140626 1.710937 9.335938 1.710937 9.410156 0 18.183594-5.074218 22.898438-13.238281l42.703124-73.964844c6.496094-11.242187 3.933594-25.402343-6.097656-33.664062zm-193.375 177.667969c-.285156.046874-.574218.078124-.871094.078124h-53.171874v-49.425781c0-5.773437-4.679688-10.449219-10.449219-10.449219-5.773438 0-10.449219 4.675782-10.449219 10.449219v49.425781h-10.921875v-114.597656c13.605469 4.84375 28.058594 7.375 42.863281 7.382813h.070313c14.851562 0 29.324219-2.527344 42.925781-7.375v114.511719zm-42.933594-128.035157h-.054687c-58.964844-.03125-106.933594-48.027343-106.933594-106.992187.003907-34.3125 16.175781-65.8125 43.160157-85.742188v76.226563c0 3.671875 1.925781 7.074219 5.070312 8.960937l53.382812 32.027344c3.308594 1.984375 7.441407 1.984375 10.75 0l53.382813-32.027344c3.148437-1.886718 5.074219-5.289062 5.074219-8.960937v-76.226563c26.980468 19.929688 43.15625 51.429688 43.15625 85.746094 0 28.527344-11.144532 55.382812-31.375 75.613281-20.230469 20.234375-47.085938 31.375-75.613282 31.375zm224.308594-26.417969-42.703125 73.964844c-1.328125 2.296875-4.125 3.421875-6.769531 2.421875l-43.773438-16.398437c-3.554687-1.332032-7.554687-.628906-10.441406 1.832031-16.925781 14.429687-36.027344 25.589844-56.792968 33.214844v-64.78125c9.585937-5.550781 18.515624-12.386719 26.5625-20.433594 24.179687-24.179687 37.496093-56.28125 37.496093-90.390625 0-48.242188-26.730469-91.832031-69.761719-113.753906-3.238281-1.652344-7.105468-1.5-10.203124.402344-3.101563 1.898437-4.992188 5.273437-4.992188 8.90625v89.011718l-42.929688 25.757813-42.933593-25.757813v-89.011718c0-3.632813-1.886719-7.007813-4.988281-8.90625-3.097657-1.898438-6.960938-2.050782-10.203126-.402344-43.03125 21.921875-69.761718 65.511718-69.761718 113.75 0 34.746094 13.582031 67.15625 38.246094 91.261718 7.859374 7.679688 16.53125 14.230469 25.8125 19.585938v65.234375c-21.261719-7.628906-40.796876-18.957031-58.074219-33.683594-1.921875-1.640625-4.332031-2.5-6.777344-2.5-1.234375 0-2.476563.21875-3.664063.664063l-43.832031 16.421875c-.613281.234375-1.253906.351562-1.90625.351562-1.964843 0-3.808593-1.070312-4.804687-2.796875l-42.703125-73.96875c-1.367188-2.359375-.824219-5.335937 1.285156-7.074218l36.054687-29.691407c2.925782-2.410156 4.316407-6.21875 3.632813-9.945312-2.027344-11.121094-3.058594-22.507813-3.058594-33.855469 0-11.34375 1.03125-22.734375 3.0625-33.855469.679688-3.726562-.710937-7.53125-3.636719-9.941406l-36.050781-29.691406c-2.113281-1.738281-2.65625-4.714844-1.289062-7.082031l42.707031-73.964844c1.320312-2.292969 4.109375-3.429688 6.769531-2.417969l43.769531 16.394531c3.554688 1.332032 7.554688.628906 10.445313-1.832031 17.417969-14.847656 37.128906-26.246094 58.589844-33.875 3.574219-1.273437 6.179687-4.382813 6.804687-8.128906l7.679688-46.058594c.445312-2.691406 2.75-4.648437 5.480468-4.648437h85.40625c2.730469 0 5.039063 1.957031 5.488282 4.65625l7.675781 46.054687c.625 3.742187 3.230469 6.855469 6.808594 8.125 21.457031 7.628906 41.167969 19.027344 58.585937 33.875 2.890625 2.460937 6.886719 3.164063 10.441406 1.832031l43.796876-16.40625c.628906-.238281 1.285156-.359375 1.949218-.359375 1.96875 0 3.804688 1.066407 4.796875 2.789063l42.707031 73.96875c1.363282 2.359375.820313 5.335937-1.289062 7.074218l-36.050781 29.691407c-2.925781 2.414062-4.320313 6.21875-3.636719 9.945312 2.03125 11.117188 3.0625 22.511719 3.0625 33.855469s-1.03125 22.734375-3.0625 33.851562c-.683594 3.730469.707031 7.535157 3.632812 9.945313l36.054688 29.691406c2.109375 1.738281 2.652344 4.71875 1.285156 7.082031zm0 0"/></svg>